<svg xmlns="http://www.w3.org/2000/svg" xmlns:xlink="http://www.w3.org/1999/xlink" width="500" zoomAndPan="magnify" viewBox="0 0 375 374.999991" height="500" preserveAspectRatio="xMidYMid meet" version="1.0"><defs><g/><clipPath id="ca6416915b"><path d="M 84.773438 139 L 262 139 L 262 190 L 84.773438 190 Z M 84.773438 139 " clip-rule="nonzero"/></clipPath><clipPath id="403c042d7f"><path d="M 116 171 L 290.273438 171 L 290.273438 195 L 116 195 Z M 116 171 " clip-rule="nonzero"/></clipPath><clipPath id="38d9ec73c7"><path d="M 182.253906 240.953125 L 284.445312 240.953125 L 284.445312 249.292969 L 182.253906 249.292969 Z M 182.253906 240.953125 " clip-rule="nonzero"/></clipPath><clipPath id="c5db1f5f88"><path d="M 153 250 L 156 250 L 156 254.3125 L 153 254.3125 Z M 153 250 " clip-rule="nonzero"/></clipPath><clipPath id="fa53c52126"><path d="M 131 250 L 134 250 L 134 254.3125 L 131 254.3125 Z M 131 250 " clip-rule="nonzero"/></clipPath><clipPath id="d9ddd15d75"><path d="M 150 250 L 153 250 L 153 254.3125 L 150 254.3125 Z M 150 250 " clip-rule="nonzero"/></clipPath><clipPath id="765f4a710c"><path d="M 147 250 L 150 250 L 150 254.3125 L 147 254.3125 Z M 147 250 " clip-rule="nonzero"/></clipPath><clipPath id="5fff3b1ef9"><path d="M 135 250 L 137 250 L 137 254.3125 L 135 254.3125 Z M 135 250 " clip-rule="nonzero"/></clipPath><clipPath id="c713ddd110"><path d="M 141 250 L 143 250 L 143 254.3125 L 141 254.3125 Z M 141 250 " clip-rule="nonzero"/></clipPath><clipPath id="3b1c59e0f3"><path d="M 138 250 L 140 250 L 140 254.3125 L 138 254.3125 Z M 138 250 " clip-rule="nonzero"/></clipPath><clipPath id="e6cf049053"><path d="M 144 250 L 147 250 L 147 254.3125 L 144 254.3125 Z M 144 250 " clip-rule="nonzero"/></clipPath><clipPath id="8e57449806"><path d="M 169 250 L 172 250 L 172 254.3125 L 169 254.3125 Z M 169 250 " clip-rule="nonzero"/></clipPath><clipPath id="63ac2328c8"><path d="M 172 250 L 176 250 L 176 254.3125 L 172 254.3125 Z M 172 250 " clip-rule="nonzero"/></clipPath><clipPath id="ee3cef2f4b"><path d="M 179 250 L 182 250 L 182 254.3125 L 179 254.3125 Z M 179 250 " clip-rule="nonzero"/></clipPath><clipPath id="8e59c771bd"><path d="M 176 250 L 179 250 L 179 254.3125 L 176 254.3125 Z M 176 250 " clip-rule="nonzero"/></clipPath><clipPath id="d3ae85e1f4"><path d="M 160 250 L 163 250 L 163 254.3125 L 160 254.3125 Z M 160 250 " clip-rule="nonzero"/></clipPath><clipPath id="946338efaf"><path d="M 166 250 L 169 250 L 169 254.3125 L 166 254.3125 Z M 166 250 " clip-rule="nonzero"/></clipPath><clipPath id="e7e2d44267"><path d="M 157 250 L 160 250 L 160 254.3125 L 157 254.3125 Z M 157 250 " clip-rule="nonzero"/></clipPath><clipPath id="209e5e6d72"><path d="M 163 250 L 166 250 L 166 254.3125 L 163 254.3125 Z M 163 250 " clip-rule="nonzero"/></clipPath><clipPath id="8c571bb8ee"><path d="M 116 250 L 118 250 L 118 254.3125 L 116 254.3125 Z M 116 250 " clip-rule="nonzero"/></clipPath><clipPath id="4969366dd8"><path d="M 91 250 L 92 250 L 92 254.3125 L 91 254.3125 Z M 91 250 " clip-rule="nonzero"/></clipPath><clipPath id="9b34927bfb"><path d="M 94 250 L 95 250 L 95 254.3125 L 94 254.3125 Z M 94 250 " clip-rule="nonzero"/></clipPath><clipPath id="ceb66d1c86"><path d="M 97 250 L 98 250 L 98 254.3125 L 97 254.3125 Z M 97 250 " clip-rule="nonzero"/></clipPath><clipPath id="f8c49b5d3b"><path d="M 84.773438 250.042969 L 85.132812 250.042969 L 85.132812 254.3125 L 84.773438 254.3125 Z M 84.773438 250.042969 " clip-rule="nonzero"/></clipPath><clipPath id="6011b50720"><path d="M 100 250 L 102 250 L 102 254.3125 L 100 254.3125 Z M 100 250 " clip-rule="nonzero"/></clipPath><clipPath id="4f6db2e071"><path d="M 182 240.953125 L 290.214844 240.953125 L 290.214844 254.3125 L 182 254.3125 Z M 182 240.953125 " clip-rule="nonzero"/></clipPath><clipPath id="757ca79674"><path d="M 87 250 L 89 250 L 89 254.3125 L 87 254.3125 Z M 87 250 " clip-rule="nonzero"/></clipPath><clipPath id="66670b8326"><path d="M 125 250 L 127 250 L 127 254.3125 L 125 254.3125 Z M 125 250 " clip-rule="nonzero"/></clipPath><clipPath id="585fffbc0f"><path d="M 122 250 L 124 250 L 124 254.3125 L 122 254.3125 Z M 122 250 " clip-rule="nonzero"/></clipPath><clipPath id="8ca0eb93df"><path d="M 119 250 L 121 250 L 121 254.3125 L 119 254.3125 Z M 119 250 " clip-rule="nonzero"/></clipPath><clipPath id="871aa35fdc"><path d="M 128 250 L 131 250 L 131 254.3125 L 128 254.3125 Z M 128 250 " clip-rule="nonzero"/></clipPath><clipPath id="a23459331a"><path d="M 106 250 L 108 250 L 108 254.3125 L 106 254.3125 Z M 106 250 " clip-rule="nonzero"/></clipPath><clipPath id="5da2bdbe9b"><path d="M 103 250 L 105 250 L 105 254.3125 L 103 254.3125 Z M 103 250 " clip-rule="nonzero"/></clipPath><clipPath id="ce02bf45b5"><path d="M 109 250 L 111 250 L 111 254.3125 L 109 254.3125 Z M 109 250 " clip-rule="nonzero"/></clipPath><clipPath id="3b4e70d8a9"><path d="M 112 250 L 115 250 L 115 254.3125 L 112 254.3125 Z M 112 250 " clip-rule="nonzero"/></clipPath></defs><rect x="-37.5" width="450" fill="#ffffff" y="-37.499999" height="449.999989" fill-opacity="1"/><rect x="-37.5" width="450" fill="#171515" y="-37.499999" height="449.999989" fill-opacity="1"/><path fill="#ff0000" d="M 190.75 134.578125 C 160.007812 134.433594 133.5625 139.308594 129.75 139.792969 C 123.644531 140.5625 121.640625 144.753906 121.640625 144.753906 L 109.820312 170.632812 C 111.910156 170.378906 114.605469 170.054688 117.800781 169.667969 C 118.519531 120.554688 242.617188 139.523438 246.773438 142.289062 C 229.191406 136.558594 209.199219 134.664062 190.75 134.578125 Z M 190.75 134.578125 " fill-opacity="1" fill-rule="nonzero"/><g clip-path="url(#ca6416915b)"><path fill="#ff0000" d="M 163.179688 141.417969 C 163.179688 141.417969 195.382812 135.898438 246.332031 145.019531 C 245.851562 144.539062 256.183594 153.175781 261.710938 170.933594 C 261.46875 170.695312 124.488281 158.9375 84.835938 189.894531 C 85.558594 188.933594 101.898438 171.894531 150.925781 167.574219 C 199.949219 163.257812 258.347656 174.535156 251.378906 157.976562 C 244.40625 141.417969 206.4375 141.417969 163.179688 141.417969 Z M 163.179688 141.417969 " fill-opacity="1" fill-rule="nonzero"/></g><path fill="#ff0000" d="M 110.550781 170.394531 L 106.40625 174.234375 C 106.40625 174.234375 103.640625 170.695312 94.207031 171.054688 C 84.777344 171.414062 89.941406 160.976562 95.53125 160.855469 C 101.117188 160.734375 106.527344 159.777344 106.105469 162.65625 C 105.683594 165.535156 105.625 169.316406 104.78125 169.675781 C 103.941406 170.035156 104.84375 161.457031 97.875 162.777344 C 90.902344 164.097656 92.285156 166.914062 94.027344 167.574219 C 95.769531 168.234375 98.292969 166.554688 100.398438 169.015625 C 102.5 171.476562 108.6875 172.796875 110.550781 170.394531 Z M 110.550781 170.394531 " fill-opacity="1" fill-rule="nonzero"/><path fill="#ff0000" d="M 261.28125 170.816406 L 265.425781 174.65625 C 265.425781 174.65625 268.191406 171.117188 277.621094 171.476562 C 287.054688 171.835938 281.890625 161.398438 276.300781 161.277344 C 270.714844 161.160156 265.304688 160.199219 265.726562 163.078125 C 266.148438 165.957031 266.207031 169.738281 267.050781 170.097656 C 267.890625 170.457031 266.988281 161.878906 273.957031 163.199219 C 280.925781 164.519531 279.546875 167.339844 277.804688 168 C 276.0625 168.65625 273.535156 166.980469 271.433594 169.4375 C 269.332031 171.898438 263.144531 173.21875 261.28125 170.816406 Z M 261.28125 170.816406 " fill-opacity="1" fill-rule="nonzero"/><g clip-path="url(#403c042d7f)"><path fill="#ff0000" d="M 193.648438 171.414062 C 170.300781 171.492188 144.765625 174.046875 116.589844 182.574219 L 116.636719 182.566406 C 159.96875 172.203125 210.050781 172.417969 246.007812 175.015625 C 245.886719 175.019531 245.832031 175.019531 245.710938 175.023438 C 240.890625 175.269531 237.96875 175.980469 231.558594 176.550781 C 225.148438 177.121094 218.703125 177.851562 213.742188 178.746094 C 211.261719 179.191406 209.15625 179.675781 207.59375 180.210938 C 206.816406 180.476562 206.171875 180.753906 205.679688 181.054688 C 205.183594 181.359375 204.824219 181.683594 204.675781 182.105469 C 204.523438 182.542969 204.71875 183.007812 205.082031 183.347656 C 250.660156 211.292969 281.742188 158.289062 289.238281 194.238281 C 289.589844 194.214844 289.941406 194.191406 290.273438 194.183594 C 288.742188 183.394531 283.175781 180.738281 280.996094 177.109375 C 280.316406 175.976562 279.414062 175.449219 278.492188 175.363281 C 277.570312 175.28125 276.65625 175.613281 275.847656 176.054688 C 269.882812 180.519531 262.621094 183.3125 255.671875 184.625 C 248.4375 185.925781 240.257812 186.453125 232.617188 186.449219 C 195.859375 179.835938 239.125 176.898438 257.566406 175.113281 C 238.144531 173.734375 216.988281 171.335938 193.648438 171.414062 Z M 193.648438 171.414062 " fill-opacity="1" fill-rule="nonzero"/></g><path fill="#ffffff" d="M 150.753906 246.484375 L 152.582031 246.523438 L 152.582031 243.785156 L 150.753906 243.828125 L 150.753906 246.484375 " fill-opacity="1" fill-rule="nonzero"/><path fill="#ffffff" d="M 153.933594 246.554688 L 155.761719 246.597656 L 155.761719 243.714844 L 153.933594 243.753906 L 153.933594 246.554688 " fill-opacity="1" fill-rule="nonzero"/><path fill="#ffffff" d="M 157.113281 246.625 L 159.039062 246.671875 L 159.039062 243.640625 L 157.113281 243.683594 L 157.113281 246.625 " fill-opacity="1" fill-rule="nonzero"/><path fill="#ffffff" d="M 147.667969 246.414062 L 149.402344 246.453125 L 149.402344 243.855469 L 147.667969 243.894531 L 147.667969 246.414062 " fill-opacity="1" fill-rule="nonzero"/><path fill="#ffffff" d="M 141.308594 246.269531 L 142.945312 246.308594 L 142.945312 244.003906 L 141.308594 244.039062 L 141.308594 246.269531 " fill-opacity="1" fill-rule="nonzero"/><path fill="#ffffff" d="M 144.488281 246.34375 L 146.125 246.378906 L 146.125 243.929688 L 144.488281 243.96875 L 144.488281 246.34375 " fill-opacity="1" fill-rule="nonzero"/><path fill="#ffffff" d="M 160.195312 246.695312 L 162.21875 246.742188 L 162.21875 243.566406 L 160.195312 243.613281 L 160.195312 246.695312 " fill-opacity="1" fill-rule="nonzero"/><path fill="#ffffff" d="M 135.042969 246.128906 L 136.488281 246.160156 L 136.488281 244.148438 L 135.042969 244.179688 L 135.042969 246.128906 " fill-opacity="1" fill-rule="nonzero"/><path fill="#ffffff" d="M 176 247.050781 L 178.3125 247.105469 L 178.3125 243.203125 L 176 243.257812 L 176 247.050781 " fill-opacity="1" fill-rule="nonzero"/><path fill="#ffffff" d="M 172.820312 246.980469 L 175.035156 247.03125 L 175.035156 243.277344 L 172.820312 243.328125 L 172.820312 246.980469 " fill-opacity="1" fill-rule="nonzero"/><path fill="#ffffff" d="M 181.492188 243.132812 L 179.085938 243.1875 L 179.085938 247.121094 L 181.492188 247.175781 L 181.492188 243.132812 " fill-opacity="1" fill-rule="nonzero"/><path fill="#ffffff" d="M 163.375 246.769531 L 165.398438 246.8125 L 165.398438 243.496094 L 163.375 243.542969 L 163.375 246.769531 " fill-opacity="1" fill-rule="nonzero"/><path fill="#ffffff" d="M 169.640625 246.910156 L 171.855469 246.960938 L 171.855469 243.351562 L 169.640625 243.398438 L 169.640625 246.910156 " fill-opacity="1" fill-rule="nonzero"/><path fill="#ffffff" d="M 166.558594 246.839844 L 168.675781 246.886719 L 168.675781 243.421875 L 166.558594 243.46875 L 166.558594 246.839844 " fill-opacity="1" fill-rule="nonzero"/><path fill="#ffffff" d="M 138.222656 246.199219 L 139.765625 246.234375 L 139.765625 244.074219 L 138.222656 244.109375 L 138.222656 246.199219 " fill-opacity="1" fill-rule="nonzero"/><path fill="#ffffff" d="M 103.53125 245.417969 L 104.394531 245.4375 L 104.394531 244.871094 L 103.53125 244.890625 L 103.53125 245.417969 " fill-opacity="1" fill-rule="nonzero"/><path fill="#ffffff" d="M 109.890625 245.5625 L 110.851562 245.585938 L 110.851562 244.726562 L 109.890625 244.746094 L 109.890625 245.5625 " fill-opacity="1" fill-rule="nonzero"/><path fill="#ffffff" d="M 100.445312 245.347656 L 101.214844 245.367188 L 101.214844 244.941406 L 100.445312 244.960938 L 100.445312 245.347656 " fill-opacity="1" fill-rule="nonzero"/><path fill="#ffffff" d="M 106.710938 245.492188 L 107.574219 245.511719 L 107.574219 244.800781 L 106.710938 244.820312 L 106.710938 245.492188 " fill-opacity="1" fill-rule="nonzero"/><g clip-path="url(#38d9ec73c7)"><path fill="#ffffff" d="M 182.265625 247.195312 L 274.648438 249.277344 L 284.4375 240.8125 L 182.265625 243.117188 L 182.265625 247.195312 " fill-opacity="1" fill-rule="nonzero"/></g><path fill="#ffffff" d="M 94.085938 245.207031 L 94.757812 245.222656 L 94.757812 245.089844 L 94.085938 245.101562 L 94.085938 245.207031 " fill-opacity="1" fill-rule="nonzero"/><path fill="#ffffff" d="M 97.265625 245.277344 L 97.9375 245.292969 L 97.9375 245.015625 L 97.265625 245.03125 L 97.265625 245.277344 " fill-opacity="1" fill-rule="nonzero"/><path fill="#ffffff" d="M 112.976562 245.632812 L 114.03125 245.65625 L 114.03125 244.652344 L 112.976562 244.675781 L 112.976562 245.632812 " fill-opacity="1" fill-rule="nonzero"/><path fill="#ffffff" d="M 122.417969 245.84375 L 123.667969 245.871094 L 123.667969 244.4375 L 122.417969 244.464844 L 122.417969 245.84375 " fill-opacity="1" fill-rule="nonzero"/><path fill="#ffffff" d="M 125.597656 245.917969 L 126.851562 245.945312 L 126.851562 244.363281 L 125.597656 244.394531 L 125.597656 245.917969 " fill-opacity="1" fill-rule="nonzero"/><path fill="#ffffff" d="M 131.863281 246.058594 L 133.308594 246.089844 L 133.308594 244.21875 L 131.863281 244.25 L 131.863281 246.058594 " fill-opacity="1" fill-rule="nonzero"/><path fill="#ffffff" d="M 128.78125 245.988281 L 130.125 246.019531 L 130.125 244.292969 L 128.78125 244.320312 L 128.78125 245.988281 " fill-opacity="1" fill-rule="nonzero"/><path fill="#ffffff" d="M 119.335938 245.773438 L 120.488281 245.800781 L 120.488281 244.507812 L 119.335938 244.535156 L 119.335938 245.773438 " fill-opacity="1" fill-rule="nonzero"/><path fill="#ffffff" d="M 116.15625 245.703125 L 117.210938 245.726562 L 117.210938 244.582031 L 116.15625 244.605469 L 116.15625 245.703125 " fill-opacity="1" fill-rule="nonzero"/><g clip-path="url(#c5db1f5f88)"><path fill="#ff0000" d="M 153.933594 254.453125 L 155.761719 254.453125 L 155.761719 250.761719 L 153.933594 250.746094 L 153.933594 254.453125 " fill-opacity="1" fill-rule="nonzero"/></g><g clip-path="url(#fa53c52126)"><path fill="#ff0000" d="M 131.863281 254.453125 L 133.308594 254.453125 L 133.308594 250.539062 L 131.863281 250.523438 L 131.863281 254.453125 " fill-opacity="1" fill-rule="nonzero"/></g><g clip-path="url(#d9ddd15d75)"><path fill="#ff0000" d="M 150.753906 254.453125 L 152.582031 254.453125 L 152.582031 250.730469 L 150.753906 250.710938 L 150.753906 254.453125 " fill-opacity="1" fill-rule="nonzero"/></g><g clip-path="url(#765f4a710c)"><path fill="#ff0000" d="M 147.667969 254.453125 L 149.402344 254.453125 L 149.402344 250.699219 L 147.667969 250.679688 L 147.667969 254.453125 " fill-opacity="1" fill-rule="nonzero"/></g><g clip-path="url(#5fff3b1ef9)"><path fill="#ff0000" d="M 135.042969 254.453125 L 136.488281 254.453125 L 136.488281 250.570312 L 135.042969 250.554688 L 135.042969 254.453125 " fill-opacity="1" fill-rule="nonzero"/></g><g clip-path="url(#c713ddd110)"><path fill="#ff0000" d="M 141.308594 254.453125 L 142.945312 254.453125 L 142.945312 250.632812 L 141.308594 250.617188 L 141.308594 254.453125 " fill-opacity="1" fill-rule="nonzero"/></g><g clip-path="url(#3b1c59e0f3)"><path fill="#ff0000" d="M 138.222656 254.453125 L 139.765625 254.453125 L 139.765625 250.601562 L 138.222656 250.585938 L 138.222656 254.453125 " fill-opacity="1" fill-rule="nonzero"/></g><g clip-path="url(#e6cf049053)"><path fill="#ff0000" d="M 144.488281 254.453125 L 146.125 254.453125 L 146.125 250.664062 L 144.488281 250.648438 L 144.488281 254.453125 " fill-opacity="1" fill-rule="nonzero"/></g><g clip-path="url(#8e57449806)"><path fill="#ff0000" d="M 169.640625 254.453125 L 171.855469 254.453125 L 171.855469 250.925781 L 169.640625 250.902344 L 169.640625 254.453125 " fill-opacity="1" fill-rule="nonzero"/></g><g clip-path="url(#63ac2328c8)"><path fill="#ff0000" d="M 172.820312 254.453125 L 175.035156 254.453125 L 175.035156 250.957031 L 172.820312 250.933594 L 172.820312 254.453125 " fill-opacity="1" fill-rule="nonzero"/></g><g clip-path="url(#ee3cef2f4b)"><path fill="#ff0000" d="M 181.492188 251.019531 L 179.085938 250.996094 L 179.085938 254.453125 L 181.492188 254.453125 L 181.492188 251.019531 " fill-opacity="1" fill-rule="nonzero"/></g><g clip-path="url(#8e59c771bd)"><path fill="#ff0000" d="M 176 254.453125 L 178.3125 254.453125 L 178.3125 250.988281 L 176 250.964844 L 176 254.453125 " fill-opacity="1" fill-rule="nonzero"/></g><g clip-path="url(#d3ae85e1f4)"><path fill="#ff0000" d="M 160.195312 254.453125 L 162.21875 254.453125 L 162.21875 250.828125 L 160.195312 250.808594 L 160.195312 254.453125 " fill-opacity="1" fill-rule="nonzero"/></g><g clip-path="url(#946338efaf)"><path fill="#ff0000" d="M 166.558594 254.453125 L 168.675781 254.453125 L 168.675781 250.890625 L 166.558594 250.871094 L 166.558594 254.453125 " fill-opacity="1" fill-rule="nonzero"/></g><g clip-path="url(#e7e2d44267)"><path fill="#ff0000" d="M 157.113281 254.453125 L 159.039062 254.453125 L 159.039062 250.796875 L 157.113281 250.777344 L 157.113281 254.453125 " fill-opacity="1" fill-rule="nonzero"/></g><g clip-path="url(#209e5e6d72)"><path fill="#ff0000" d="M 163.375 254.453125 L 165.398438 254.453125 L 165.398438 250.859375 L 163.375 250.839844 L 163.375 254.453125 " fill-opacity="1" fill-rule="nonzero"/></g><g clip-path="url(#8c571bb8ee)"><path fill="#ff0000" d="M 116.15625 254.453125 L 117.210938 254.453125 L 117.210938 250.375 L 116.15625 250.363281 L 116.15625 254.453125 " fill-opacity="1" fill-rule="nonzero"/></g><g clip-path="url(#4969366dd8)"><path fill="#ff0000" d="M 91.003906 254.453125 L 91.578125 254.453125 L 91.578125 250.117188 L 91.003906 250.113281 L 91.003906 254.453125 " fill-opacity="1" fill-rule="nonzero"/></g><g clip-path="url(#9b34927bfb)"><path fill="#ff0000" d="M 94.085938 254.453125 L 94.757812 254.453125 L 94.757812 250.152344 L 94.085938 250.144531 L 94.085938 254.453125 " fill-opacity="1" fill-rule="nonzero"/></g><g clip-path="url(#ceb66d1c86)"><path fill="#ff0000" d="M 97.265625 254.453125 L 97.9375 254.453125 L 97.9375 250.183594 L 97.265625 250.175781 L 97.265625 254.453125 " fill-opacity="1" fill-rule="nonzero"/></g><g clip-path="url(#f8c49b5d3b)"><path fill="#ff0000" d="M 85.121094 254.453125 L 85.121094 250.054688 L 84.773438 250.050781 L 84.773438 254.453125 L 85.121094 254.453125 " fill-opacity="1" fill-rule="nonzero"/></g><g clip-path="url(#6011b50720)"><path fill="#ff0000" d="M 100.445312 254.453125 L 101.214844 254.453125 L 101.214844 250.214844 L 100.445312 250.207031 L 100.445312 254.453125 " fill-opacity="1" fill-rule="nonzero"/></g><g clip-path="url(#4f6db2e071)"><path fill="#ff0000" d="M 182.265625 254.453125 L 277.917969 254.453125 L 290.214844 240.96875 L 277.175781 251.980469 L 182.265625 251.027344 L 182.265625 254.453125 " fill-opacity="1" fill-rule="nonzero"/></g><g clip-path="url(#757ca79674)"><path fill="#ff0000" d="M 87.820312 254.453125 L 88.300781 254.453125 L 88.300781 250.085938 L 87.820312 250.082031 L 87.820312 254.453125 " fill-opacity="1" fill-rule="nonzero"/></g><g clip-path="url(#66670b8326)"><path fill="#ff0000" d="M 125.597656 254.453125 L 126.851562 254.453125 L 126.851562 250.472656 L 125.597656 250.460938 L 125.597656 254.453125 " fill-opacity="1" fill-rule="nonzero"/></g><g clip-path="url(#585fffbc0f)"><path fill="#ff0000" d="M 122.417969 254.453125 L 123.667969 254.453125 L 123.667969 250.441406 L 122.417969 250.429688 L 122.417969 254.453125 " fill-opacity="1" fill-rule="nonzero"/></g><g clip-path="url(#8ca0eb93df)"><path fill="#ff0000" d="M 119.335938 254.453125 L 120.488281 254.453125 L 120.488281 250.410156 L 119.335938 250.398438 L 119.335938 254.453125 " fill-opacity="1" fill-rule="nonzero"/></g><g clip-path="url(#871aa35fdc)"><path fill="#ff0000" d="M 128.78125 254.453125 L 130.125 254.453125 L 130.125 250.503906 L 128.78125 250.492188 L 128.78125 254.453125 " fill-opacity="1" fill-rule="nonzero"/></g><g clip-path="url(#a23459331a)"><path fill="#ff0000" d="M 106.710938 254.453125 L 107.574219 254.453125 L 107.574219 250.277344 L 106.710938 250.269531 L 106.710938 254.453125 " fill-opacity="1" fill-rule="nonzero"/></g><g clip-path="url(#5da2bdbe9b)"><path fill="#ff0000" d="M 103.53125 254.453125 L 104.394531 254.453125 L 104.394531 250.246094 L 103.53125 250.238281 L 103.53125 254.453125 " fill-opacity="1" fill-rule="nonzero"/></g><g clip-path="url(#ce02bf45b5)"><path fill="#ff0000" d="M 109.890625 254.453125 L 110.851562 254.453125 L 110.851562 250.3125 L 109.890625 250.300781 L 109.890625 254.453125 " fill-opacity="1" fill-rule="nonzero"/></g><g clip-path="url(#3b4e70d8a9)"><path fill="#ff0000" d="M 112.976562 254.453125 L 114.03125 254.453125 L 114.03125 250.34375 L 112.976562 250.332031 L 112.976562 254.453125 " fill-opacity="1" fill-rule="nonzero"/></g><g fill="#ffffff" fill-opacity="1"><g transform="translate(46.132834, 221.67868)"><g><path d="M 23.515625 0 C 25.535156 0 27.265625 -0.71875 28.703125 -2.15625 C 30.140625 -3.59375 30.859375 -5.320312 30.859375 -7.34375 L 27.921875 -7.34375 C 27.921875 -6.132812 27.488281 -5.097656 26.625 -4.234375 C 25.769531 -3.367188 24.734375 -2.9375 23.515625 -2.9375 L 9.8125 -2.9375 C 8.601562 -2.9375 7.566406 -3.367188 6.703125 -4.234375 C 5.835938 -5.097656 5.40625 -6.132812 5.40625 -7.34375 L 5.40625 -16.34375 C 5.40625 -17.550781 5.835938 -18.585938 6.703125 -19.453125 C 7.566406 -20.316406 8.601562 -20.75 9.8125 -20.75 L 23.515625 -20.75 C 24.734375 -20.75 25.769531 -20.316406 26.625 -19.453125 C 27.488281 -18.585938 27.921875 -17.550781 27.921875 -16.34375 L 30.859375 -16.34375 C 30.859375 -18.363281 30.140625 -20.09375 28.703125 -21.53125 C 27.265625 -22.96875 25.535156 -23.6875 23.515625 -23.6875 L 9.8125 -23.6875 C 7.789062 -23.6875 6.0625 -22.96875 4.625 -21.53125 C 3.1875 -20.09375 2.46875 -18.363281 2.46875 -16.34375 L 2.46875 -7.34375 C 2.46875 -5.320312 3.1875 -3.59375 4.625 -2.15625 C 6.0625 -0.71875 7.789062 0 9.8125 0 Z M 23.515625 0 "/></g></g></g><g fill="#ffffff" fill-opacity="1"><g transform="translate(79.457819, 221.67868)"><g><path d="M 23.515625 0 C 25.535156 0 27.265625 -0.71875 28.703125 -2.15625 C 30.140625 -3.59375 30.859375 -5.320312 30.859375 -7.34375 L 30.859375 -16.34375 C 30.859375 -18.363281 30.140625 -20.09375 28.703125 -21.53125 C 27.265625 -22.96875 25.535156 -23.6875 23.515625 -23.6875 L 9.8125 -23.6875 C 7.789062 -23.6875 6.0625 -22.96875 4.625 -21.53125 C 3.1875 -20.09375 2.46875 -18.363281 2.46875 -16.34375 L 2.46875 -7.34375 C 2.46875 -5.320312 3.1875 -3.59375 4.625 -2.15625 C 6.0625 -0.71875 7.789062 0 9.8125 0 Z M 23.515625 -2.9375 L 9.8125 -2.9375 C 8.601562 -2.9375 7.566406 -3.367188 6.703125 -4.234375 C 5.835938 -5.097656 5.40625 -6.132812 5.40625 -7.34375 L 5.40625 -16.34375 C 5.40625 -17.550781 5.835938 -18.585938 6.703125 -19.453125 C 7.566406 -20.316406 8.601562 -20.75 9.8125 -20.75 L 23.515625 -20.75 C 24.734375 -20.75 25.769531 -20.316406 26.625 -19.453125 C 27.488281 -18.585938 27.921875 -17.550781 27.921875 -16.34375 L 27.921875 -7.34375 C 27.921875 -6.132812 27.488281 -5.097656 26.625 -4.234375 C 25.769531 -3.367188 24.734375 -2.9375 23.515625 -2.9375 Z M 23.515625 -2.9375 "/></g></g></g><g fill="#ffffff" fill-opacity="1"><g transform="translate(112.782805, 221.67868)"><g><path d="M 31.6875 0 L 29.6875 0 L 6.234375 -19.109375 L 6.234375 0 L 3.296875 0 L 3.296875 -23.671875 L 5.296875 -23.671875 L 28.75 -4.546875 L 28.75 -23.671875 L 31.6875 -23.671875 Z M 31.6875 0 "/></g></g></g><g fill="#ffffff" fill-opacity="1"><g transform="translate(147.757542, 221.67868)"><g><path d="M 6.234375 0 L 3.296875 0 L 3.296875 -23.671875 L 30.21875 -23.671875 L 30.21875 -20.734375 L 6.234375 -20.734375 L 6.234375 -13.296875 L 27.4375 -13.296875 L 27.4375 -10.359375 L 6.234375 -10.359375 Z M 6.234375 0 "/></g></g></g><g fill="#ffffff" fill-opacity="1"><g transform="translate(180.439133, 221.67868)"><g><path d="M 6.234375 0 L 6.234375 -23.671875 L 3.296875 -23.671875 L 3.296875 0 Z M 6.234375 0 "/></g></g></g><g fill="#ffffff" fill-opacity="1"><g transform="translate(189.974698, 221.67868)"><g><path d="M 34.046875 0 L 30.5 0 L 26.875 -5.34375 L 7.640625 -5.34375 L 4.046875 0 L 0.5 0 L 16.484375 -23.671875 L 18.03125 -23.671875 Z M 24.90625 -8.28125 L 17.265625 -19.578125 L 9.640625 -8.28125 Z M 24.90625 -8.28125 "/></g></g></g><g fill="#ffffff" fill-opacity="1"><g transform="translate(224.504011, 221.67868)"><g><path d="M 23.515625 0 C 25.535156 0 27.265625 -0.71875 28.703125 -2.15625 C 30.140625 -3.59375 30.859375 -5.320312 30.859375 -7.34375 L 27.921875 -7.34375 C 27.921875 -6.132812 27.488281 -5.097656 26.625 -4.234375 C 25.769531 -3.367188 24.734375 -2.9375 23.515625 -2.9375 L 9.8125 -2.9375 C 8.601562 -2.9375 7.566406 -3.367188 6.703125 -4.234375 C 5.835938 -5.097656 5.40625 -6.132812 5.40625 -7.34375 L 5.40625 -16.34375 C 5.40625 -17.550781 5.835938 -18.585938 6.703125 -19.453125 C 7.566406 -20.316406 8.601562 -20.75 9.8125 -20.75 L 23.515625 -20.75 C 24.734375 -20.75 25.769531 -20.316406 26.625 -19.453125 C 27.488281 -18.585938 27.921875 -17.550781 27.921875 -16.34375 L 30.859375 -16.34375 C 30.859375 -18.363281 30.140625 -20.09375 28.703125 -21.53125 C 27.265625 -22.96875 25.535156 -23.6875 23.515625 -23.6875 L 9.8125 -23.6875 C 7.789062 -23.6875 6.0625 -22.96875 4.625 -21.53125 C 3.1875 -20.09375 2.46875 -18.363281 2.46875 -16.34375 L 2.46875 -7.34375 C 2.46875 -5.320312 3.1875 -3.59375 4.625 -2.15625 C 6.0625 -0.71875 7.789062 0 9.8125 0 Z M 23.515625 0 "/></g></g></g><g fill="#ffffff" fill-opacity="1"><g transform="translate(257.828996, 221.67868)"><g><path d="M 34.046875 0 L 30.5 0 L 26.875 -5.34375 L 7.640625 -5.34375 L 4.046875 0 L 0.5 0 L 16.484375 -23.671875 L 18.03125 -23.671875 Z M 24.90625 -8.28125 L 17.265625 -19.578125 L 9.640625 -8.28125 Z M 24.90625 -8.28125 "/></g></g></g><g fill="#ffffff" fill-opacity="1"><g transform="translate(292.358309, 221.67868)"><g><path d="M 31.6875 0 L 28.75 0 L 28.75 -6.453125 C 28.75 -7.117188 28.507812 -7.691406 28.03125 -8.171875 C 27.550781 -8.648438 26.976562 -8.890625 26.3125 -8.890625 L 6.234375 -8.890625 L 6.234375 0 L 3.296875 0 L 3.296875 -23.671875 L 26.3125 -23.671875 C 27.789062 -23.671875 29.054688 -23.144531 30.109375 -22.09375 C 31.160156 -21.039062 31.6875 -19.769531 31.6875 -18.28125 L 31.6875 -14.28125 C 31.6875 -12.738281 31.125 -11.429688 30 -10.359375 C 31.125 -9.296875 31.6875 -7.992188 31.6875 -6.453125 Z M 26.3125 -11.828125 C 26.976562 -11.828125 27.550781 -12.066406 28.03125 -12.546875 C 28.507812 -13.023438 28.75 -13.601562 28.75 -14.28125 L 28.75 -18.28125 C 28.75 -18.957031 28.507812 -19.535156 28.03125 -20.015625 C 27.550781 -20.492188 26.976562 -20.734375 26.3125 -20.734375 L 6.234375 -20.734375 L 6.234375 -11.828125 Z M 26.3125 -11.828125 "/></g></g></g><g fill="#ffffff" fill-opacity="1"><g transform="translate(89.495169, 236.210801)"><g><path d="M 10.84375 0 C 11.78125 0 12.578125 -0.328125 13.234375 -0.984375 C 13.898438 -1.648438 14.234375 -2.453125 14.234375 -3.390625 L 12.890625 -3.390625 C 12.890625 -2.828125 12.691406 -2.347656 12.296875 -1.953125 C 11.898438 -1.554688 11.414062 -1.359375 10.84375 -1.359375 L 4.53125 -1.359375 C 3.96875 -1.359375 3.488281 -1.554688 3.09375 -1.953125 C 2.695312 -2.347656 2.5 -2.828125 2.5 -3.390625 L 2.5 -7.53125 C 2.5 -8.09375 2.695312 -8.570312 3.09375 -8.96875 C 3.488281 -9.375 3.96875 -9.578125 4.53125 -9.578125 L 10.84375 -9.578125 C 11.414062 -9.578125 11.898438 -9.375 12.296875 -8.96875 C 12.691406 -8.570312 12.890625 -8.09375 12.890625 -7.53125 L 14.234375 -7.53125 C 14.234375 -8.46875 13.898438 -9.265625 13.234375 -9.921875 C 12.578125 -10.585938 11.78125 -10.921875 10.84375 -10.921875 L 4.53125 -10.921875 C 3.59375 -10.921875 2.789062 -10.585938 2.125 -9.921875 C 1.46875 -9.265625 1.140625 -8.46875 1.140625 -7.53125 L 1.140625 -3.390625 C 1.140625 -2.453125 1.46875 -1.648438 2.125 -0.984375 C 2.789062 -0.328125 3.59375 0 4.53125 0 Z M 10.84375 0 "/></g></g></g><g fill="#ffffff" fill-opacity="1"><g transform="translate(104.868863, 236.210801)"><g><path d="M 10.84375 0 C 11.78125 0 12.578125 -0.328125 13.234375 -0.984375 C 13.898438 -1.648438 14.234375 -2.453125 14.234375 -3.390625 L 14.234375 -7.53125 C 14.234375 -8.46875 13.898438 -9.265625 13.234375 -9.921875 C 12.578125 -10.585938 11.78125 -10.921875 10.84375 -10.921875 L 4.53125 -10.921875 C 3.59375 -10.921875 2.789062 -10.585938 2.125 -9.921875 C 1.46875 -9.265625 1.140625 -8.46875 1.140625 -7.53125 L 1.140625 -3.390625 C 1.140625 -2.453125 1.46875 -1.648438 2.125 -0.984375 C 2.789062 -0.328125 3.59375 0 4.53125 0 Z M 10.84375 -1.359375 L 4.53125 -1.359375 C 3.96875 -1.359375 3.488281 -1.554688 3.09375 -1.953125 C 2.695312 -2.347656 2.5 -2.828125 2.5 -3.390625 L 2.5 -7.53125 C 2.5 -8.09375 2.695312 -8.570312 3.09375 -8.96875 C 3.488281 -9.375 3.96875 -9.578125 4.53125 -9.578125 L 10.84375 -9.578125 C 11.414062 -9.578125 11.898438 -9.375 12.296875 -8.96875 C 12.691406 -8.570312 12.890625 -8.09375 12.890625 -7.53125 L 12.890625 -3.390625 C 12.890625 -2.828125 12.691406 -2.347656 12.296875 -1.953125 C 11.898438 -1.554688 11.414062 -1.359375 10.84375 -1.359375 Z M 10.84375 -1.359375 "/></g></g></g><g fill="#ffffff" fill-opacity="1"><g transform="translate(120.242558, 236.210801)"><g><path d="M 14.625 0 L 13.703125 0 L 2.875 -8.8125 L 2.875 0 L 1.515625 0 L 1.515625 -10.921875 L 2.4375 -10.921875 L 13.265625 -2.09375 L 13.265625 -10.921875 L 14.625 -10.921875 Z M 14.625 0 "/></g></g></g><g fill="#ffffff" fill-opacity="1"><g transform="translate(136.377327, 236.210801)"><g><path d="M 10.84375 0 C 11.78125 0 12.578125 -0.328125 13.234375 -0.984375 C 13.898438 -1.648438 14.234375 -2.453125 14.234375 -3.390625 L 12.890625 -3.390625 C 12.890625 -2.828125 12.691406 -2.347656 12.296875 -1.953125 C 11.898438 -1.554688 11.414062 -1.359375 10.84375 -1.359375 L 4.53125 -1.359375 C 3.96875 -1.359375 3.488281 -1.554688 3.09375 -1.953125 C 2.695312 -2.347656 2.5 -2.828125 2.5 -3.390625 L 2.5 -7.53125 C 2.5 -8.09375 2.695312 -8.570312 3.09375 -8.96875 C 3.488281 -9.375 3.96875 -9.578125 4.53125 -9.578125 L 10.84375 -9.578125 C 11.414062 -9.578125 11.898438 -9.375 12.296875 -8.96875 C 12.691406 -8.570312 12.890625 -8.09375 12.890625 -7.53125 L 14.234375 -7.53125 C 14.234375 -8.46875 13.898438 -9.265625 13.234375 -9.921875 C 12.578125 -10.585938 11.78125 -10.921875 10.84375 -10.921875 L 4.53125 -10.921875 C 3.59375 -10.921875 2.789062 -10.585938 2.125 -9.921875 C 1.46875 -9.265625 1.140625 -8.46875 1.140625 -7.53125 L 1.140625 -3.390625 C 1.140625 -2.453125 1.46875 -1.648438 2.125 -0.984375 C 2.789062 -0.328125 3.59375 0 4.53125 0 Z M 10.84375 0 "/></g></g></g><g fill="#ffffff" fill-opacity="1"><g transform="translate(151.751022, 236.210801)"><g><path d="M 13.9375 0 L 1.515625 0 L 1.515625 -10.921875 L 13.9375 -10.921875 L 13.9375 -9.578125 L 2.875 -9.578125 L 2.875 -6.140625 L 12.65625 -6.140625 L 12.65625 -4.78125 L 2.875 -4.78125 L 2.875 -1.359375 L 13.9375 -1.359375 Z M 13.9375 0 "/></g></g></g><g fill="#ffffff" fill-opacity="1"><g transform="translate(166.827901, 236.210801)"><g><path d="M 11.75 0 L 3.625 0 C 2.9375 0 2.347656 -0.238281 1.859375 -0.71875 C 1.378906 -1.207031 1.140625 -1.796875 1.140625 -2.484375 L 2.5 -2.484375 C 2.5 -2.171875 2.609375 -1.90625 2.828125 -1.6875 C 3.046875 -1.46875 3.3125 -1.359375 3.625 -1.359375 L 11.75 -1.359375 C 12.0625 -1.359375 12.328125 -1.46875 12.546875 -1.6875 C 12.773438 -1.90625 12.890625 -2.171875 12.890625 -2.484375 L 12.890625 -3.65625 C 12.890625 -3.96875 12.773438 -4.234375 12.546875 -4.453125 C 12.328125 -4.671875 12.0625 -4.78125 11.75 -4.78125 L 3.625 -4.78125 C 2.9375 -4.78125 2.347656 -5.019531 1.859375 -5.5 C 1.378906 -5.988281 1.140625 -6.578125 1.140625 -7.265625 L 1.140625 -8.4375 C 1.140625 -9.125 1.378906 -9.707031 1.859375 -10.1875 C 2.347656 -10.675781 2.9375 -10.921875 3.625 -10.921875 L 11.75 -10.921875 C 12.4375 -10.921875 13.019531 -10.675781 13.5 -10.1875 C 13.988281 -9.707031 14.234375 -9.125 14.234375 -8.4375 L 12.890625 -8.4375 C 12.890625 -8.75 12.773438 -9.015625 12.546875 -9.234375 C 12.328125 -9.453125 12.0625 -9.5625 11.75 -9.5625 L 3.625 -9.5625 C 3.3125 -9.5625 3.046875 -9.453125 2.828125 -9.234375 C 2.609375 -9.015625 2.5 -8.75 2.5 -8.4375 L 2.5 -7.265625 C 2.5 -6.953125 2.609375 -6.6875 2.828125 -6.46875 C 3.046875 -6.25 3.3125 -6.140625 3.625 -6.140625 L 11.75 -6.140625 C 12.4375 -6.140625 13.019531 -5.894531 13.5 -5.40625 C 13.988281 -4.925781 14.234375 -4.34375 14.234375 -3.65625 L 14.234375 -2.484375 C 14.234375 -1.796875 13.988281 -1.207031 13.5 -0.71875 C 13.019531 -0.238281 12.4375 0 11.75 0 Z M 11.75 0 "/></g></g></g><g fill="#ffffff" fill-opacity="1"><g transform="translate(182.201596, 236.210801)"><g><path d="M 11.75 0 L 3.625 0 C 2.9375 0 2.347656 -0.238281 1.859375 -0.71875 C 1.378906 -1.207031 1.140625 -1.796875 1.140625 -2.484375 L 2.5 -2.484375 C 2.5 -2.171875 2.609375 -1.90625 2.828125 -1.6875 C 3.046875 -1.46875 3.3125 -1.359375 3.625 -1.359375 L 11.75 -1.359375 C 12.0625 -1.359375 12.328125 -1.46875 12.546875 -1.6875 C 12.773438 -1.90625 12.890625 -2.171875 12.890625 -2.484375 L 12.890625 -3.65625 C 12.890625 -3.96875 12.773438 -4.234375 12.546875 -4.453125 C 12.328125 -4.671875 12.0625 -4.78125 11.75 -4.78125 L 3.625 -4.78125 C 2.9375 -4.78125 2.347656 -5.019531 1.859375 -5.5 C 1.378906 -5.988281 1.140625 -6.578125 1.140625 -7.265625 L 1.140625 -8.4375 C 1.140625 -9.125 1.378906 -9.707031 1.859375 -10.1875 C 2.347656 -10.675781 2.9375 -10.921875 3.625 -10.921875 L 11.75 -10.921875 C 12.4375 -10.921875 13.019531 -10.675781 13.5 -10.1875 C 13.988281 -9.707031 14.234375 -9.125 14.234375 -8.4375 L 12.890625 -8.4375 C 12.890625 -8.75 12.773438 -9.015625 12.546875 -9.234375 C 12.328125 -9.453125 12.0625 -9.5625 11.75 -9.5625 L 3.625 -9.5625 C 3.3125 -9.5625 3.046875 -9.453125 2.828125 -9.234375 C 2.609375 -9.015625 2.5 -8.75 2.5 -8.4375 L 2.5 -7.265625 C 2.5 -6.953125 2.609375 -6.6875 2.828125 -6.46875 C 3.046875 -6.25 3.3125 -6.140625 3.625 -6.140625 L 11.75 -6.140625 C 12.4375 -6.140625 13.019531 -5.894531 13.5 -5.40625 C 13.988281 -4.925781 14.234375 -4.34375 14.234375 -3.65625 L 14.234375 -2.484375 C 14.234375 -1.796875 13.988281 -1.207031 13.5 -0.71875 C 13.019531 -0.238281 12.4375 0 11.75 0 Z M 11.75 0 "/></g></g></g><g fill="#ffffff" fill-opacity="1"><g transform="translate(197.575291, 236.210801)"><g><path d="M 2.875 0 L 2.875 -10.921875 L 1.515625 -10.921875 L 1.515625 0 Z M 2.875 0 "/></g></g></g><g fill="#ffffff" fill-opacity="1"><g transform="translate(201.974298, 236.210801)"><g><path d="M 10.84375 0 C 11.78125 0 12.578125 -0.328125 13.234375 -0.984375 C 13.898438 -1.648438 14.234375 -2.453125 14.234375 -3.390625 L 14.234375 -7.53125 C 14.234375 -8.46875 13.898438 -9.265625 13.234375 -9.921875 C 12.578125 -10.585938 11.78125 -10.921875 10.84375 -10.921875 L 4.53125 -10.921875 C 3.59375 -10.921875 2.789062 -10.585938 2.125 -9.921875 C 1.46875 -9.265625 1.140625 -8.46875 1.140625 -7.53125 L 1.140625 -3.390625 C 1.140625 -2.453125 1.46875 -1.648438 2.125 -0.984375 C 2.789062 -0.328125 3.59375 0 4.53125 0 Z M 10.84375 -1.359375 L 4.53125 -1.359375 C 3.96875 -1.359375 3.488281 -1.554688 3.09375 -1.953125 C 2.695312 -2.347656 2.5 -2.828125 2.5 -3.390625 L 2.5 -7.53125 C 2.5 -8.09375 2.695312 -8.570312 3.09375 -8.96875 C 3.488281 -9.375 3.96875 -9.578125 4.53125 -9.578125 L 10.84375 -9.578125 C 11.414062 -9.578125 11.898438 -9.375 12.296875 -8.96875 C 12.691406 -8.570312 12.890625 -8.09375 12.890625 -7.53125 L 12.890625 -3.390625 C 12.890625 -2.828125 12.691406 -2.347656 12.296875 -1.953125 C 11.898438 -1.554688 11.414062 -1.359375 10.84375 -1.359375 Z M 10.84375 -1.359375 "/></g></g></g><g fill="#ffffff" fill-opacity="1"><g transform="translate(217.347993, 236.210801)"><g><path d="M 14.625 0 L 13.703125 0 L 2.875 -8.8125 L 2.875 0 L 1.515625 0 L 1.515625 -10.921875 L 2.4375 -10.921875 L 13.265625 -2.09375 L 13.265625 -10.921875 L 14.625 -10.921875 Z M 14.625 0 "/></g></g></g><g fill="#ffffff" fill-opacity="1"><g transform="translate(233.482762, 236.210801)"><g><path d="M 15.703125 0 L 14.078125 0 L 12.40625 -2.46875 L 3.53125 -2.46875 L 1.859375 0 L 0.234375 0 L 7.609375 -10.921875 L 8.328125 -10.921875 Z M 11.484375 -3.828125 L 7.96875 -9.03125 L 4.453125 -3.828125 Z M 8.578125 -11.671875 L 7.34375 -12.234375 L 8.4375 -14.640625 L 9.671875 -14.09375 Z M 8.578125 -11.671875 "/></g></g></g><g fill="#ffffff" fill-opacity="1"><g transform="translate(249.412052, 236.210801)"><g><path d="M 14.625 0 L 13.265625 0 L 13.265625 -2.984375 C 13.265625 -3.285156 13.148438 -3.546875 12.921875 -3.765625 C 12.703125 -3.992188 12.441406 -4.109375 12.140625 -4.109375 L 2.875 -4.109375 L 2.875 0 L 1.515625 0 L 1.515625 -10.921875 L 12.140625 -10.921875 C 12.828125 -10.921875 13.410156 -10.675781 13.890625 -10.1875 C 14.378906 -9.707031 14.625 -9.125 14.625 -8.4375 L 14.625 -6.59375 C 14.625 -5.875 14.363281 -5.269531 13.84375 -4.78125 C 14.363281 -4.289062 14.625 -3.691406 14.625 -2.984375 Z M 12.140625 -5.453125 C 12.441406 -5.453125 12.703125 -5.5625 12.921875 -5.78125 C 13.148438 -6.007812 13.265625 -6.28125 13.265625 -6.59375 L 13.265625 -8.4375 C 13.265625 -8.75 13.148438 -9.015625 12.921875 -9.234375 C 12.703125 -9.453125 12.441406 -9.5625 12.140625 -9.5625 L 2.875 -9.5625 L 2.875 -5.453125 Z M 12.140625 -5.453125 "/></g></g></g><g fill="#ffffff" fill-opacity="1"><g transform="translate(265.166291, 236.210801)"><g><path d="M 2.875 0 L 2.875 -10.921875 L 1.515625 -10.921875 L 1.515625 0 Z M 2.875 0 "/></g></g></g><g fill="#ffffff" fill-opacity="1"><g transform="translate(269.565292, 236.210801)"><g><path d="M 15.703125 0 L 14.078125 0 L 12.40625 -2.46875 L 3.53125 -2.46875 L 1.859375 0 L 0.234375 0 L 7.609375 -10.921875 L 8.328125 -10.921875 Z M 11.484375 -3.828125 L 7.96875 -9.03125 L 4.453125 -3.828125 Z M 11.484375 -3.828125 "/></g></g></g></svg>